<?xml version="1.0" encoding="UTF-8" standalone="no"?>
<!-- Created with Inkscape (http://www.inkscape.org/) -->

<svg
   xmlns:dc="http://purl.org/dc/elements/1.1/"
   xmlns:cc="http://creativecommons.org/ns#"
   xmlns:rdf="http://www.w3.org/1999/02/22-rdf-syntax-ns#"
   xmlns:svg="http://www.w3.org/2000/svg"
   xmlns="http://www.w3.org/2000/svg"
   xmlns:xlink="http://www.w3.org/1999/xlink"
   xmlns:sodipodi="http://sodipodi.sourceforge.net/DTD/sodipodi-0.dtd"
   xmlns:inkscape="http://www.inkscape.org/namespaces/inkscape"
   width="100"
   height="100"
   viewBox="0 0 26.458333 26.458334"
   version="1.1"
   id="svg72658"
   inkscape:version="0.92.1 r15371"
   sodipodi:docname="briefcase.svg">
  <title
     id="title153962">briefcase</title>
  <defs
     id="defs72652">
    <symbol
       id="icon-briefcase"
       viewBox="0 0 28 28">
      <title
         id="title78693">briefcase</title>
      <path
         style="stroke-width:0.26458332"
         inkscape:connector-curvature="0"
         d="M 2.6458333,1.0583333 H 4.7625 V 0.52916667 H 2.6458333 Z m 4.7625,2.6458334 v 1.984375 C 7.4083333,6.0523437 7.1106771,6.35 6.746875,6.35 H 0.66145833 C 0.29765625,6.35 0,6.0523437 0,5.6885417 V 3.7041667 H 2.778125 V 4.365625 c 0,0.1447271 0.1198562,0.2645833 0.2645833,0.2645833 H 4.365625 c 0.1447271,0 0.2645833,-0.1198562 0.2645833,-0.2645833 V 3.7041667 Z m -3.175,0 V 4.2333333 H 3.175 V 3.7041667 Z m 3.175,-1.984375 v 1.5875 H 0 v -1.5875 C 0,1.3559896 0.29765625,1.0583333 0.66145833,1.0583333 H 2.1166667 V 0.396875 C 2.1166667,0.1778 2.2944667,0 2.5135417,0 h 2.38125 c 0.219075,0 0.396875,0.1778 0.396875,0.396875 V 1.0583333 H 6.746875 c 0.3638021,0 0.6614583,0.2976563 0.6614583,0.6614584 z"
         id="path78695" />
    </symbol>
  </defs>
  <sodipodi:namedview
     id="base"
     pagecolor="#ffffff"
     bordercolor="#666666"
     borderopacity="1.0"
     inkscape:pageopacity="0.0"
     inkscape:pageshadow="2"
     inkscape:zoom="8.64"
     inkscape:cx="50"
     inkscape:cy="50"
     inkscape:document-units="mm"
     inkscape:current-layer="layer1"
     showgrid="false"
     units="px"
     inkscape:pagecheckerboard="true"
     inkscape:window-width="1920"
     inkscape:window-height="1056"
     inkscape:window-x="0"
     inkscape:window-y="504"
     inkscape:window-maximized="1" />
  <metadata
     id="metadata72655">
    <rdf:RDF>
      <cc:Work
         rdf:about="">
        <dc:format>image/svg+xml</dc:format>
        <dc:type
           rdf:resource="http://purl.org/dc/dcmitype/StillImage" />
        <dc:title>briefcase</dc:title>
      </cc:Work>
    </rdf:RDF>
  </metadata>
  <g
     inkscape:label="Ebene 1"
     inkscape:groupmode="layer"
     id="layer1"
     transform="translate(0,-270.54165)">
    <use
       id="use153578"
       transform="matrix(3.2125985,0,0,3.2125985,1.9843749,274.13242)"
       style="fill:black;stroke:none"
       xlink:href="#icon-briefcase"
       x="0"
       y="0"
       width="100%"
       height="100%" />
  </g>
</svg>
