<?xml version="1.0" encoding="UTF-8" standalone="no"?>
<!-- Created with Inkscape (http://www.inkscape.org/) -->

<svg
   xmlns:dc="http://purl.org/dc/elements/1.1/"
   xmlns:cc="http://creativecommons.org/ns#"
   xmlns:rdf="http://www.w3.org/1999/02/22-rdf-syntax-ns#"
   xmlns:svg="http://www.w3.org/2000/svg"
   xmlns="http://www.w3.org/2000/svg"
   xmlns:xlink="http://www.w3.org/1999/xlink"
   xmlns:sodipodi="http://sodipodi.sourceforge.net/DTD/sodipodi-0.dtd"
   xmlns:inkscape="http://www.inkscape.org/namespaces/inkscape"
   width="100"
   height="100"
   viewBox="0 0 26.458333 26.458334"
   version="1.1"
   id="svg72658"
   inkscape:version="0.92.1 r15371"
   sodipodi:docname="gear.svg">
  <title
     id="title225147">gear</title>
  <defs
     id="defs72652">
    <symbol
       id="icon-cog"
       viewBox="0 0 24 28">
      <title
         id="title155894">cog</title>
      <path
         style="stroke-width:0.26458332"
         inkscape:connector-curvature="0"
         d="M 4.2333333,3.7041667 C 4.2333333,3.1212896 3.7578771,2.6458333 3.175,2.6458333 c -0.5828771,0 -1.0583333,0.4754563 -1.0583333,1.0583334 C 2.1166667,4.2870437 2.5921229,4.7625 3.175,4.7625 c 0.5828771,0 1.0583333,-0.4754563 1.0583333,-1.0583333 z M 6.35,3.2535812 v 0.9178396 c 0,0.061913 -0.049477,0.136525 -0.1158875,0.1486959 L 5.4692021,4.4360042 C 5.4236937,4.5682958 5.3742167,4.6923854 5.3080708,4.8122417 C 5.4485646,5.0149125 5.597525,5.1966812 5.7504542,5.3826833 c 0.024871,0.02884 0.041275,0.066146 0.041275,0.1034521 c 0,0.037306 -0.012435,0.066146 -0.037306,0.094985 c -0.099219,0.1322921 -0.6572253,0.74004 -0.7979836,0.74004 c -0.037306,0 -0.074348,-0.016669 -0.1074209,-0.037306 L 4.2785771,5.8375021 C 4.1587208,5.8994146 4.0303979,5.9533896 3.9023396,5.9946646 C 3.8735,6.2468125 3.8486292,6.5156292 3.7824833,6.7635437 C 3.7658146,6.8296896 3.7081354,6.8794312 3.6337875,6.8794312 H 2.7159479 c -0.074348,0 -0.1404937,-0.05371 -0.1486958,-0.1240895 L 2.4513646,5.9946646 C 2.3233063,5.9533896 2.1992167,5.9036479 2.0793604,5.8417354 L 1.4964833,6.2841187 c -0.02884,0.024871 -0.066146,0.037306 -0.1034521,0.037306 c -0.037306,0 -0.074348,-0.016669 -0.103452,-0.045508 C 1.0705042,6.0774792 0.78105,5.8210979 0.60748333,5.5813854 C 0.58684583,5.5525458 0.57864375,5.5194729 0.57864375,5.4864 c 0,-0.037306 0.0124354,-0.066146 0.0330729,-0.094985 C 0.75221042,5.2011792 0.90513958,5.0194104 1.0458979,4.8249417 C 0.97551875,4.69265 0.91783958,4.556125 0.8763,4.4156312 L 0.11985625,4.3039771 C 0.04947708,4.2915417 0,4.2253958 0,4.1552812 V 3.2374417 C 0,3.1755292 0.04947708,3.1009167 0.11165417,3.0887458 L 0.88053333,2.9728583 C 0.92180833,2.8405667 0.97551875,2.7164771 1.0416646,2.5926521 C 0.90117083,2.3942146 0.75221042,2.2082125 0.59928125,2.0222104 c -0.0248708,-0.02884 -0.041275,-0.061913 -0.041275,-0.099219 c 0,-0.037306 0.0166688,-0.066146 0.0373062,-0.094986 C 0.69453125,1.6914804 1.2525374,1.0879659 1.3932957,1.0879659 c 0.037306,0 0.074348,0.016669 0.1074209,0.041275 L 2.0711583,1.571625 C 2.1910146,1.5097125 2.3193375,1.4557375 2.4473958,1.4144625 c 0.02884,-0.2521479 0.05371,-0.52096458 0.1198563,-0.76887917 C 2.5839208,0.5794375 2.6416,0.52969583 2.7159479,0.52969583 h 0.9178396 c 0.074348,0 0.1404937,0.0537104 0.1486958,0.12408959 L 3.8983708,1.4144625 c 0.1280584,0.041275 0.2521479,0.091017 0.3720042,0.1529292 L 4.8574854,1.1250083 c 0.024871,-0.024871 0.061913,-0.037306 0.099219,-0.037306 c 0.037306,0 0.074348,0.016669 0.103452,0.041275 c 0.219075,0.2026708 0.5085292,0.4587875 0.6820959,0.7027333 c 0.020638,0.024871 0.02884,0.057944 0.02884,0.091017 c 0,0.037306 -0.012436,0.066146 -0.033073,0.094985 C 5.597525,2.2079479 5.4445958,2.3897167 5.3038375,2.5841854 c 0.070379,0.1322917 0.1280583,0.2688167 0.1695979,0.4050771 L 6.2298792,3.10515 c 0.070379,0.012435 0.1198562,0.078581 0.1198562,0.1486958 z"
         id="path155896" />
    </symbol>
  </defs>
  <sodipodi:namedview
     id="base"
     pagecolor="#ffffff"
     bordercolor="#666666"
     borderopacity="1.0"
     inkscape:pageopacity="0.0"
     inkscape:pageshadow="2"
     inkscape:zoom="8.64"
     inkscape:cx="50"
     inkscape:cy="50"
     inkscape:document-units="mm"
     inkscape:current-layer="layer1"
     showgrid="false"
     units="px"
     inkscape:pagecheckerboard="true"
     inkscape:window-width="1920"
     inkscape:window-height="1056"
     inkscape:window-x="0"
     inkscape:window-y="504"
     inkscape:window-maximized="1" />
  <metadata
     id="metadata72655">
    <rdf:RDF>
      <cc:Work
         rdf:about="">
        <dc:format>image/svg+xml</dc:format>
        <dc:type
           rdf:resource="http://purl.org/dc/dcmitype/StillImage" />
        <dc:title>gear</dc:title>
      </cc:Work>
    </rdf:RDF>
  </metadata>
  <g
     inkscape:label="Ebene 1"
     inkscape:groupmode="layer"
     id="layer1"
     transform="translate(0,-270.54165)">
    <use
       id="use225133"
       transform="matrix(3.7480314,0,0,3.7480314,-5.0989547,270.65049)"
       style="fill:black;stroke:none"
       xlink:href="#icon-cog"
       x="0"
       y="0"
       width="100%"
       height="100%" />
  </g>
</svg>
