<?xml version="1.0" encoding="UTF-8" standalone="no"?>
<!-- Created with Inkscape (http://www.inkscape.org/) -->

<svg
   xmlns:dc="http://purl.org/dc/elements/1.1/"
   xmlns:cc="http://creativecommons.org/ns#"
   xmlns:rdf="http://www.w3.org/1999/02/22-rdf-syntax-ns#"
   xmlns:svg="http://www.w3.org/2000/svg"
   xmlns="http://www.w3.org/2000/svg"
   xmlns:xlink="http://www.w3.org/1999/xlink"
   xmlns:sodipodi="http://sodipodi.sourceforge.net/DTD/sodipodi-0.dtd"
   xmlns:inkscape="http://www.inkscape.org/namespaces/inkscape"
   width="100"
   height="100"
   viewBox="0 0 26.458333 26.458334"
   version="1.1"
   id="svg72658"
   inkscape:version="0.92.1 r15371"
   sodipodi:docname="home.svg">
  <title
     id="title151320">home</title>
  <defs
     id="defs72652">
    <symbol
       id="icon-home"
       viewBox="0 0 26 28">
      <title
         id="title80052">home</title>
      <path
         style="stroke-width:0.26458332"
         inkscape:connector-curvature="0"
         d="m 5.8208333,4.1010417 v 1.984375 C 5.8208333,6.2301437 5.7009771,6.35 5.55625,6.35 H 3.96875 V 4.7625 H 2.9104167 V 6.35 h -1.5875 C 1.1781896,6.35 1.0583333,6.2301437 1.0583333,6.0854167 v -1.984375 c 0,-0.0082 0.00423,-0.016669 0.00423,-0.024871 l 2.37702,-1.959504 L 5.8166,4.0761708 c 0.00423,0.0082 0.00423,0.016669 0.00423,0.024871 z M 6.7426417,3.8158208 L 6.4862604,4.1216792 c -0.020638,0.024871 -0.05371,0.041275 -0.086783,0.045508 h -0.012435 c -0.033073,0 -0.061913,-0.0082 -0.086783,-0.02884 L 3.4393187,1.7528646 L 0.57837917,4.1383479 c -0.0288396,0.020637 -0.0619125,0.033073 -0.0992188,0.02884 C 0.4460875,4.1629542 0.41301458,4.14655 0.39237708,4.1216792 L 0.13599583,3.8158208 C 0.0904875,3.7621104 0.09868958,3.6753271 0.15266458,3.6298187 L 3.1249937,1.1535833 c 0.1735667,-0.1447271 0.4548188,-0.1447271 0.6283855,0 L 4.7622354,1.9968104 V 1.190625 c 0,-0.074348 0.057944,-0.1322917 0.1322917,-0.1322917 h 0.79375 c 0.074348,0 0.1322916,0.057944 0.1322916,0.1322917 v 1.6867187 l 0.9054042,0.752475 c 0.05371,0.045508 0.061913,0.1322917 0.016669,0.1860021 z"
         id="path80054" />
    </symbol>
  </defs>
  <sodipodi:namedview
     id="base"
     pagecolor="#ffffff"
     bordercolor="#666666"
     borderopacity="1.0"
     inkscape:pageopacity="0.0"
     inkscape:pageshadow="2"
     inkscape:zoom="8.64"
     inkscape:cx="50"
     inkscape:cy="50"
     inkscape:document-units="mm"
     inkscape:current-layer="layer1"
     showgrid="false"
     units="px"
     inkscape:pagecheckerboard="true"
     inkscape:window-width="1920"
     inkscape:window-height="1056"
     inkscape:window-x="0"
     inkscape:window-y="504"
     inkscape:window-maximized="1" />
  <metadata
     id="metadata72655">
    <rdf:RDF>
      <cc:Work
         rdf:about="">
        <dc:format>image/svg+xml</dc:format>
        <dc:type
           rdf:resource="http://purl.org/dc/dcmitype/StillImage" />
        <dc:title>home</dc:title>
      </cc:Work>
    </rdf:RDF>
  </metadata>
  <g
     inkscape:label="Ebene 1"
     inkscape:groupmode="layer"
     id="layer1"
     transform="translate(0,-270.54165)">
    <use
       id="use151306"
       transform="matrix(3.5705946,0,0,3.5705946,-1.7487595,271.29539)"
       style="fill:black;stroke:none"
       xlink:href="#icon-home"
       x="0"
       y="0"
       width="100%"
       height="100%" />
  </g>
</svg>
