<?xml version="1.0" encoding="UTF-8" standalone="no"?>
<!-- Created with Inkscape (http://www.inkscape.org/) -->

<svg
   xmlns:dc="http://purl.org/dc/elements/1.1/"
   xmlns:cc="http://creativecommons.org/ns#"
   xmlns:rdf="http://www.w3.org/1999/02/22-rdf-syntax-ns#"
   xmlns:svg="http://www.w3.org/2000/svg"
   xmlns="http://www.w3.org/2000/svg"
   xmlns:xlink="http://www.w3.org/1999/xlink"
   xmlns:sodipodi="http://sodipodi.sourceforge.net/DTD/sodipodi-0.dtd"
   xmlns:inkscape="http://www.inkscape.org/namespaces/inkscape"
   width="100"
   height="100"
   viewBox="0 0 26.458333 26.458334"
   version="1.1"
   id="svg72658"
   inkscape:version="0.92.1 r15371"
   sodipodi:docname="pencil.svg">
  <title
     id="title298993">pencil</title>
  <defs
     id="defs72652">
    <symbol
       id="icon-pencil"
       viewBox="0 0 24 28">
      <title
         id="title229950">pencil</title>
      <path
         style="stroke-width:0.26458332"
         inkscape:connector-curvature="0"
         d="M 1.5007167,6.35 L 1.8769542,5.9737625 L 0.90540417,5.0022125 L 0.52916667,5.37845 V 5.8208333 H 1.0583333 V 6.35 Z m 2.162175,-3.8364583 c 0,-0.053711 -0.037306,-0.091017 -0.091017,-0.091017 c -0.024871,0 -0.049477,0.0082 -0.070379,0.02884 L 1.2607396,4.6921208 C 1.2401021,4.7127583 1.2319,4.7376292 1.2319,4.7625 c 0,0.05371 0.037306,0.091017 0.091017,0.091017 c 0.024871,0 0.049477,-0.0082 0.070379,-0.02884 L 3.6340521,2.5839208 c 0.020638,-0.020637 0.02884,-0.045508 0.02884,-0.070379 z M 3.4395833,1.7197917 L 5.159375,3.4395833 L 1.7197917,6.8791667 H 0 V 5.159375 Z m 2.8236334,0.396875 c 0,0.1404937 -0.057944,0.2770187 -0.1529292,0.3720041 L 5.4239583,3.175 L 3.7041667,1.4552083 L 4.3904958,0.7731125 C 4.4854813,0.67389375 4.6220062,0.61595 4.7625,0.61595 c 0.1404937,0 0.2770187,0.0579437 0.3762375,0.1571625 l 0.97155,0.9673167 c 0.094985,0.099219 0.1529292,0.2357437 0.1529292,0.3762375 z"
         id="path229952" />
    </symbol>
  </defs>
  <sodipodi:namedview
     id="base"
     pagecolor="#ffffff"
     bordercolor="#666666"
     borderopacity="1.0"
     inkscape:pageopacity="0.0"
     inkscape:pageshadow="2"
     inkscape:zoom="8.64"
     inkscape:cx="50"
     inkscape:cy="50"
     inkscape:document-units="mm"
     inkscape:current-layer="layer1"
     showgrid="false"
     units="px"
     inkscape:pagecheckerboard="true"
     inkscape:window-width="1920"
     inkscape:window-height="1056"
     inkscape:window-x="0"
     inkscape:window-y="504"
     inkscape:window-maximized="1" />
  <metadata
     id="metadata72655">
    <rdf:RDF>
      <cc:Work
         rdf:about="">
        <dc:format>image/svg+xml</dc:format>
        <dc:type
           rdf:resource="http://purl.org/dc/dcmitype/StillImage" />
        <dc:title>pencil</dc:title>
      </cc:Work>
    </rdf:RDF>
  </metadata>
  <g
     inkscape:label="Ebene 1"
     inkscape:groupmode="layer"
     id="layer1"
     transform="translate(0,-270.54165)">
    <use
       id="use298979"
       transform="matrix(3.7999642,0,0,3.7999642,-5.1971014,270.31431)"
       style="fill:black;stroke:none"
       xlink:href="#icon-pencil"
       x="0"
       y="0"
       width="100%"
       height="100%" />
  </g>
</svg>
