<svg xmlns="http://www.w3.org/2000/svg" xmlns:xlink="http://www.w3.org/1999/xlink" viewBox="0 0 26.458333 26.458334">
  <title>
    briefcase
  </title>
  <defs>
    <symbol viewBox="0 0 28 28" id="a">
      <title>
        briefcase
      </title>
      <path d="M2.6458333 1.0583333H4.7625V.52916667H2.6458333zm4.7625 2.6458334v1.984375c0 .363802-.2976562.6614583-.6614583.6614583H.66145833C.29765625 6.35 0 6.0523437 0 5.6885417v-1.984375h2.778125v.6614583c0 .1447271.1198562.2645833.2645833.2645833H4.365625c.1447271 0 .2645833-.1198562.2645833-.2645833v-.6614583zm-3.175 0v.5291666H3.175v-.5291666zm3.175-1.984375v1.5875H0v-1.5875c0-.3638021.29765625-.6614584.66145833-.6614584H2.1166667V.396875c0-.219075.1778-.396875.396875-.396875h2.38125c.219075 0 .396875.1778.396875.396875v.6614583H6.746875c.3638021 0 .6614583.2976563.6614583.6614584z" stroke-width=".26458332"/>
    </symbol>
  </defs>
  <use height="100%" width="100%" xlink:href="#a" transform="translate(1.984 3.59) scale(3.2126)"/>
</svg>
