<svg xmlns="http://www.w3.org/2000/svg" xmlns:xlink="http://www.w3.org/1999/xlink" viewBox="0 0 26.458333 26.458334">
  <title>
    gear
  </title>
  <defs>
    <symbol viewBox="0 0 24 28" id="a">
      <title>
        cog
      </title>
      <path d="M4.2333333 3.7041667c0-.5828771-.4754562-1.0583334-1.0583333-1.0583334-.5828771 0-1.0583333.4754563-1.0583333 1.0583334 0 .582877.4754562 1.0583333 1.0583333 1.0583333.5828771 0 1.0583333-.4754563 1.0583333-1.0583333zM6.35 3.2535812v.9178396c0 .061913-.049477.136525-.1158875.1486959l-.7649104.1158875c-.0455084.1322916-.0949854.2563812-.1611313.3762375.1404938.2026708.2894542.3844395.4423834.5704416.024871.02884.041275.066146.041275.1034521 0 .037306-.012435.066146-.037306.094985-.099219.1322921-.6572253.74004-.7979836.74004-.037306 0-.074348-.016669-.1074209-.037306l-.5704416-.4463523c-.1198563.0619125-.2481792.1158875-.3762375.1571625-.0288396.2521479-.0537104.5209646-.1198563.7688791-.0166687.0661459-.0743479.1158875-.1486958.1158875h-.9178396c-.074348 0-.1404937-.05371-.1486958-.1240895l-.1158875-.7606771c-.1280583-.041275-.2521479-.0910167-.3720042-.1529292l-.5828771.4423833c-.02884.024871-.066146.037306-.1034521.037306-.037306 0-.074348-.016669-.103452-.045508-.219075-.1984375-.5085292-.4548188-.68209587-.6945313C.58684583 5.5525458.57864375 5.5194729.57864375 5.4864c0-.037306.0124354-.066146.0330729-.094985.14049377-.1902358.29342293-.3720046.43418125-.5664733C.97551875 4.69265.91783958 4.556125.8763 4.4156312l-.75644375-.1116541C.04947708 4.2915417 0 4.2253958 0 4.1552812v-.9178395c0-.0619125.04947708-.136525.11165417-.1486959l.76887916-.1158875c.041275-.1322916.09498542-.2563812.16113127-.3802062-.14049377-.1984375-.28945418-.3844396-.44238335-.5704417-.0248708-.02884-.041275-.061913-.041275-.099219s.0166688-.066146.0373062-.094986c.0992188-.136525.65722495-.7400395.79798325-.7400395.037306 0 .074348.016669.1074209.041275l.5704417.4423841c.1198563-.0619125.2481792-.1158875.3762375-.1571625.02884-.2521479.05371-.52096458.1198563-.76887917.0166687-.06614583.0743479-.1158875.1486958-.1158875h.9178396c.074348 0 .1404937.0537104.1486958.1240896l.1158875.76067707c.1280584.041275.2521479.091017.3720042.1529292l.5871104-.4423834c.024871-.024871.061913-.037306.099219-.037306s.074348.016669.103452.041275c.219075.2026708.5085292.4587875.6820959.7027333.020638.024871.02884.057944.02884.091017 0 .037306-.012436.066146-.033073.094985-.1404943.1902353-.2934235.3720041-.4341818.5664728.070379.1322917.1280583.2688167.1695979.4050771l.7564438.1158875c.070379.012435.1198562.078581.1198562.1486958z" stroke-width=".26458332"/>
    </symbol>
  </defs>
  <use height="100%" width="100%" xlink:href="#a" transform="translate(-5.1 .11) scale(3.748)"/>
</svg>
