<svg xmlns="http://www.w3.org/2000/svg" xmlns:xlink="http://www.w3.org/1999/xlink" viewBox="0 0 26.458333 26.458334">
  <title>
    home
  </title>
  <defs>
    <symbol viewBox="0 0 26 28" id="a">
      <title>
        home
      </title>
      <path d="M5.8208333 4.1010417v1.984375c0 .144727-.1198562.2645833-.2645833.2645833h-1.5875V4.7625H2.9104167V6.35h-1.5875c-.1447271 0-.2645834-.1198563-.2645834-.2645833v-1.984375c0-.0082.00423-.016669.00423-.024871l2.37702-1.959504L5.8166 4.0761708c.00423.0082.00423.016669.00423.024871zm.9218084-.2852209l-.2563813.3058584c-.020638.024871-.05371.041275-.086783.045508h-.012435c-.033073 0-.061913-.0082-.086783-.02884L3.4393187 1.7528646.57837917 4.1383479c-.0288396.020637-.0619125.033073-.0992188.02884-.03307287-.0042337-.0661458-.0206379-.0867833-.0455087l-.25638124-.3058584c-.04550833-.0537104-.03730625-.1404937.01666875-.1860021L3.1249937 1.1535833c.1735667-.1447271.4548188-.1447271.6283855 0l1.0088562.8432271V1.190625c0-.074348.057944-.1322917.1322917-.1322917h.79375c.074348 0 .1322916.057944.1322916.1322917v1.6867187l.9054042.752475c.05371.045508.061913.1322917.016669.1860021z" stroke-width=".26458332"/>
    </symbol>
  </defs>
  <use height="100%" width="100%" xlink:href="#a" transform="matrix(3.57 0 0 3.57 -1.75 .75)"/>
</svg>
