<svg xmlns="http://www.w3.org/2000/svg" xmlns:xlink="http://www.w3.org/1999/xlink" viewBox="0 0 26.458333 26.458334">
  <defs>
    <symbol viewBox="0 0 28 28" id="a">
      <title>
        leaf
      </title>
      <path d="M5.2916667 2.9104167c0-.1447271-.1198563-.2645834-.2645834-.2645834-1.4634104 0-2.4061208.6117167-3.3610021 1.6660813-.049477.0537104-.0785812.1116541-.0785812.1860021 0 .144727.1198562.2645833.2645833.2645833.074348 0 .1322917-.02884.1860021-.078581.2026709-.1820336.3844396-.3802065.5828771-.5664732.7482417-.6738937 1.3890625-.9427104 2.4061208-.9427104.1447271 0 .2645834-.1198562.2645834-.2645833zm2.1166666-.8186209c0 .2645834-.02884.5334-.082815.7979834-.2645829 1.2856104-1.0914058 2.1209-2.2407558 2.6913416-.5580063.2809875-1.1824229.4463521-1.8108083.4463521-.396875 0-.8061855-.066146-1.1824229-.1942042-.1984375-.0661458-.5953125-.3264958-.7606771-.3264958-.2066396 0-.45481878.8432271-.81438753.8432271-.26035 0-.33893125-.1280583-.45058542-.3182938-.03730625-.0703791-.06614583-.0949854-.06614583-.1820333 0-.4299479.81862083-.7649104.81862083-1.0046229 0-.037306-.10742083-.2563813-.12408958-.3389312-.02487084-.1404938-.03730625-.2852209-.03730625-.429948 0-1.3147145 1.04589788-2.2531916 2.22011878-2.6416.8474604-.2809875 2.6500666.0455084 3.224477-.50032705.2272771-.21087292.3389313-.40507708.6863292-.40507708.4672542 0 .6201833 1.21126253.6201833 1.56262913z" stroke-width=".26458332"/>
    </symbol>
  </defs>
  <use height="100%" width="100%" xlink:href="#a" transform="matrix(3.2 0 0 3.2 2 2.8)"/>
</svg>
