<svg xmlns="http://www.w3.org/2000/svg" xmlns:xlink="http://www.w3.org/1999/xlink" viewBox="0 0 26.458333 26.458334">
  <title>
    pencil
  </title>
  <defs>
    <symbol viewBox="0 0 24 28" id="a">
      <title>
        pencil
      </title>
      <path d="M1.5007167 6.35l.3762375-.3762375-.97155003-.97155-.3762375.3762375v.4423833h.52916663V6.35zm2.162175-3.8364583c0-.053711-.037306-.091017-.091017-.091017-.024871 0-.049477.0082-.070379.02884L1.2607396 4.6921208C1.2401021 4.7127583 1.2319 4.7376292 1.2319 4.7625c0 .05371.037306.091017.091017.091017.024871 0 .049477-.0082.070379-.02884l2.2407561-2.2407562c.020638-.020637.02884-.045508.02884-.070379zm-.2233084-.79375L5.159375 3.4395833 1.7197917 6.8791667H0V5.159375zm2.8236334.396875c0 .1404937-.057944.2770187-.1529292.3720041L5.4239583 3.175 3.7041667 1.4552083l.6863291-.6820958C4.4854813.67389375 4.6220062.61595 4.7625.61595c.1404937 0 .2770187.0579437.3762375.1571625l.97155.9673167c.094985.099219.1529292.2357437.1529292.3762375z" stroke-width=".26458332"/>
    </symbol>
  </defs>
  <use height="100%" width="100%" xlink:href="#a" transform="matrix(3.8 0 0 3.8 -5.2 -.2)"/>
</svg>
